<svg xmlns="http://www.w3.org/2000/svg" viewBox="0 0 2000 2000"><rect width="2000" height="2000" rx="360" fill="#0b0b0c"/><g transform="translate(236,237)"><path fill="#f3f2ee" d="M172 760Q172 883 218 991Q265 1099 345 1179Q425 1259 532 1306Q640 1352 762 1352Q884 1352 992 1306Q1100 1259 1180 1179Q1261 1099 1308 991Q1354 883 1354 760Q1354 638 1308 530Q1261 423 1180 343Q1100 263 992 216Q884 170 762 170Q640 170 532 216Q425 263 345 343Q265 423 218 530Q172 638 172 760ZM764 0Q869 0 966 27Q1064 54 1149 104Q1234 154 1304 224Q1373 293 1423 378Q1473 463 1500 562Q1528 660 1528 766Q1528 871 1500 968Q1473 1066 1424 1150Q1374 1235 1304 1304Q1234 1373 1149 1422Q1064 1472 966 1499Q868 1526 762 1526Q656 1526 559 1499Q462 1472 377 1422Q292 1373 222 1304Q153 1234 104 1149Q54 1064 27 967Q0 870 0 764Q0 659 28 561Q55 463 104 378Q154 293 224 224Q293 154 378 104Q463 55 560 28Q658 0 764 0ZM764 624Q793 624 818 635Q844 646 863 665Q882 684 893 710Q904 735 904 764Q904 793 893 818Q882 844 863 862Q844 881 818 892Q793 902 764 902Q735 902 710 891Q684 880 665 862Q646 843 635 818Q624 793 624 764Q624 735 635 710Q646 684 665 665Q684 646 710 635Q735 624 764 624Z"/></g></svg>
